<svg version="1.2" xmlns="http://www.w3.org/2000/svg" viewBox="0 0 50 50" width="50" height="50">
	<title>icon _locked-chest-svg</title>
	<style>
		.s0 { fill: #90663e } 
	</style>
	<path id="Layer" fill-rule="evenodd" class="s0" d="m34.9 2c1.2 0 2.4 0.3 3.6 0.9 4.6 2.5 8.5 9 8.7 14.5l-4 1.4c-0.4-6.1-4.4-12.7-9.6-15.5q-0.7-0.3-1.3-0.5l2.1-0.8q0.3 0 0.5 0zm-5.6 2c1 0 2.2 0.3 3.5 1 4.6 2.4 8.5 9 8.7 14.4l-14.9 5.3c-0.4-6.2-4.5-12.8-9.7-15.6q-0.6-0.3-1.2-0.5l12.8-4.5q0.4-0.1 0.8-0.1zm-16.7 5.8c1 0 2.2 0.3 3.5 1 4.6 2.4 8.6 9 8.7 14.5l-4.4 1.6c-0.4-6.2-4.5-12.8-9.7-15.6q-0.6-0.3-1.3-0.6l2.6-0.9q0.3 0 0.6 0zm-6 2.2q1.4 0 3.3 1c4.5 2.3 8.4 8.6 8.7 14l-16.6-7.3c0-3.9 1-6.1 2.3-7q0.4-0.3 0.7-0.4l0.5-0.2q0.5-0.1 1.1-0.1zm40.6 25.9l-3.9 1.4v-18.6l3.9-1.4zm-5.7-16.5v18.6l-14.9 5.4v-18.7l2.8-1v11.8l9.6-3.4v-11.8zm-39.5 0.3zm16.6 7.3v18.8l-16.6-7.3v-18.8zm18.6 3.8l-6 2.1v-9.9l6-2.1zm-2.9-7.1c-1 0-1.7 0.8-1.7 1.8 0 0.6 0.3 1.2 0.8 1.5v2.8h1.8v-2.8c0.4-0.4 0.7-0.9 0.7-1.5 0-1-0.7-1.8-1.6-1.8zm-9.5 1.6zm0 18.7l-4.4 1.6v-18.7l4.4-1.6z"/>
</svg>