<svg version="1.2" xmlns="http://www.w3.org/2000/svg" viewBox="0 0 50 50" width="50" height="50">
	<title>icon _fire-svg</title>
	<style>
		.s0 { fill: #f89070 } 
	</style>
	<path id="Layer" fill-rule="evenodd" class="s0" d="m41 25.9l0.3 0.7c2.4 5.7 0.8 12.4-3.9 16.6-4.1 3.8-9.9 4.8-15.3 4.1-5.1-0.7-9.8-3.8-12.5-8.2-0.8-1.3-1.5-2.8-1.8-4.3-0.5-1.3-0.6-2.6-0.8-3.8-0.3-5.5 2-11.3 6.2-14.7-1.9 4.1-1.4 9.3 1.4 12.9 0.1 0.2 0.2 0.3 0.4 0.4 0.4 0.4 1.1 0.6 1.6 0.3 0.5-0.2 0.9-0.7 0.9-1.2 0-0.4-0.1-0.6-0.2-0.9-3.1-7.9-0.5-17.2 6.1-22.5 1.7-1.4 3.8-2.7 6.2-3.3-2.4 4.7-1.5 10.8 2.2 14.5 1.7 1.5 3.6 2.6 5.3 4.1 0.6 0.7 1.3 1.4 1.9 2.1 0 0 1.4 2 2 3.2zm-7.6 7q0-0.6-0.2-1.1c-0.6-3.4-3.7-4.5-5.6-7.1-0.6-0.7-1.1-1.7-1.6-2.6-0.7 1.7-0.8 3.3-0.4 5.2 0.3 1.9 1.1 3.6 0.7 5.6-0.6 2.3-2.4 4.5-5.4 5.2 1.7 1.7 4.5 3.1 7.4 2.1 0.9-0.3 2-1 2.7-1.6 1.6-1.4 2.5-3.6 2.4-5.7z"/>
</svg>