<svg version="1.2" xmlns="http://www.w3.org/2000/svg" viewBox="0 0 50 50" width="50" height="50">
	<title>icon _bottle-svg</title>
	<style>
		.s0 { fill: #46bddc } 
	</style>
	<path id="Layer" fill-rule="evenodd" class="s0" d="m44.1 10.5l-2.3-2.6 2.7-4.5 4.5 5.1zm-10.4 22.5l-17.1 14.8-15.6-18 17.1-14.8c5.2-4.5 11.9-5.3 15-1.8l3.8-3.3-1.1-1.3 1.9-1.6 6.7 7.7-1.9 1.7-1.1-1.3-3.8 3.3c3.1 3.5 1.3 10.1-3.9 14.6zm-2.2-2.6c3.1-2.7 4.1-6.6 2.3-8.7l-4.5-5.2c-1.8-2.1-5.9-1.6-9 1.1l-13.3 11.5 11.2 12.8z"/>
</svg>